<?xml version="1.0" encoding="UTF-8" standalone="no"?>
<svg
   viewBox="0 0 1412.0144 425.58917"
   version="1.1"
   id="svg4"
   sodipodi:docname="logo_nombre.svg"
   width="1412.0144"
   height="425.58917"
   inkscape:version="1.4.2 (f4327f4, 2025-05-13)"
   xmlns:inkscape="http://www.inkscape.org/namespaces/inkscape"
   xmlns:sodipodi="http://sodipodi.sourceforge.net/DTD/sodipodi-0.dtd"
   xmlns="http://www.w3.org/2000/svg"
   xmlns:svg="http://www.w3.org/2000/svg">
  <defs
     id="defs4" />
  <sodipodi:namedview
     id="namedview4"
     pagecolor="#121212"
     bordercolor="#000000"
     borderopacity="0.25"
     inkscape:showpageshadow="2"
     inkscape:pageopacity="0.0"
     inkscape:pagecheckerboard="0"
     inkscape:deskcolor="#d1d1d1"
     inkscape:zoom="0.773"
     inkscape:cx="758.08538"
     inkscape:cy="304.65718"
     inkscape:window-width="1920"
     inkscape:window-height="991"
     inkscape:window-x="-9"
     inkscape:window-y="-9"
     inkscape:window-maximized="1"
     inkscape:current-layer="layer1"
     showguides="true">
    <sodipodi:guide
       position="404.63172,1087.0098"
       orientation="0,-1"
       id="guide12"
       inkscape:locked="false" />
  </sodipodi:namedview>
  <g
     id="g12"
     transform="translate(16.317581,16.317581)">
    <circle
       style="fill:#4db22e;fill-opacity:1;stroke:#ffffff;stroke-width:0;stroke-dasharray:none;stroke-opacity:1"
       cx="196.47701"
       cy="196.47701"
       id="ellipse1-8"
       r="212.79459" />
    <circle
       style="fill:#001a0b;stroke:#ffffff;stroke-width:0;stroke-dasharray:none;stroke-opacity:1"
       cx="196.47701"
       cy="196.47701"
       id="ellipse1"
       r="195.97701" />
    <path
       d="m 352.73701,196.47701 c 0,14.869 -2.077,29.252 -5.956,42.877 0.137,-28.687 -6.134,-77.091 -44.64,-111.272 2.534,-36.082005 -49.138,-80.448005 -90.44,-40.788005 -15.258,-3.253 -29.314,-4.804 -45.788,0.221 -5.33,-22.373 -90.271005,-17.003 -75.428005,46.406005 0.139,3.146 -44.847,36.802 -17.811,63.276 0.548,6.841 8.65,32.573 36.540005,49.326 -6.486,48.253 17.499,80.184 39.34,98.728 -62.856005,-20.232 -108.337005,-79.192 -108.337005,-148.774 0,-86.3 69.960005,-156.260005 156.260005,-156.260005 86.3,0 156.26,69.960005 156.26,156.260005 z"
       style="fill:#4db22e;stroke:#ffffff;stroke-width:0;stroke-dasharray:none;stroke-opacity:1"
       id="path1" />
    <path
       style="fill:#4db22e;stroke:#ffffff;stroke-width:0;stroke-dasharray:none;stroke-opacity:1"
       d="m 200.84701,100.68101 c -8.5,15.859 -4.06,28.108 -4.06,28.108 10.403,-31.717005 45.165,-55.441005 70.538,-34.635005 25.373,20.806005 17.127,47.067005 17.127,47.067005 0,0 21.439,13.702 24.484,34.635 3.045,20.933 -9.008,44.402 -45.673,63.813 -36.665,19.411 -79.039,19.03 -117.733,8.754 -38.694,-10.276 -58.994005,-47.956 -58.994005,-47.956 69.480005,22.681 98.501005,19.129 111.278005,19.129 42.9,0 65.141,-21.474 67.561,-23.894 8.517,-8.517 -2.543,-18.024 -8.711,-11.856 -3.595,3.595 -4.582,17.196 -52.065,24.451 -45.838,7.004 -93.254,-11.367 -111.999005,-15.491 -27.116,-5.966 -15.473,-25.259 1.305,-45.878 16.778005,-20.619 9.603005,-12.656 10.411005,-28.727 0.808,-16.071 12.128,-28.302005 29.108,-30.121005 16.98,-1.819 20.922,16.576005 20.922,16.576005 14.524,-8.985005 46.501,-3.975 46.501,-3.975 z m 48.574,6.638 c -14.214,-3.809 -29.189,5.988 -33.448,21.881 -4.259,15.894 3.812,31.866 18.026,35.674 14.214,3.809 29.19,-5.988 33.448,-21.881 4.259,-15.894 -3.812,-31.866 -18.026,-35.674 z m -92.828,52.88 c -0.544,-1.414 -2.564,-5.02 -9.517,-2.542 -4.747,1.692 -10.305,6.174 -12.541,9.528 -4.411,6.618 -0.736,8.602 3.676,7.205 4.412,-1.397 6.985,-4.191 13.382,-5.441 6.397,-1.25 6.103,-5.882 5,-8.75 z m -49.633,4.265 c -0.781,-2.342 -2.641,-9.73 -6.599,-9.882 -3.243005,-0.125 -5.404005,5.1 -4.871005,7.97 0.956,5.147 3.676,7.573 7.941005,9.191 4.265,1.618 5.294,-1.985 3.529,-7.279 z"
       id="path2" />
    <path
       style="fill:#4db22e;stroke:#ffffff;stroke-width:0;stroke-dasharray:none;stroke-opacity:1"
       d="m 189.00301,342.86101 c 0,0 6.995,-22.672 18.572,-38.832 11.577,-16.16 27.978,-25.325 39.796,-31.837 11.818,-6.512 31.114,-13.265 42.691,-20.742 11.577,-7.477 17.607,-12.783 21.707,-21.949 0,0 -1.206,22.913 -24.842,45.344 -23.636,22.431 -50.168,31.114 -97.924,68.016 z"
       id="path3" />
    <path
       style="fill:#4db22e;stroke:#ffffff;stroke-width:0;stroke-dasharray:none;stroke-opacity:1"
       d="m 128.30701,266.28601 c 0,0 16.164,43.663 45.707,70.047 0,0 -55.183,-19.323 -45.707,-70.047 z"
       id="path4" />
    <circle
       style="fill:#ffffff;stroke:#ffffff;stroke-width:0;stroke-dasharray:none;stroke-opacity:1"
       cx="249.601"
       cy="128.927"
       id="ellipse4"
       r="9.1549997" />
  </g>
  <g
     inkscape:groupmode="layer"
     id="layer1"
     inkscape:label="Text"
     transform="translate(16.317581,16.317581)">
    <g
       id="g11"
       transform="matrix(1.737014,-0.30914589,0.30914589,1.737014,-527.48406,91.853215)">
      <path
         style="font-weight:bold;font-size:96px;line-height:0.7;font-family:Teko;-inkscape-font-specification:'Teko Bold';baseline-shift:baseline;fill:#f9f9f9;stroke:#ffffff;stroke-width:0"
         d="m 634.10139,153.87065 v 11.904 h -30.816 v -11.904 z m 10.56,21.12 h -16.896 l -9.216,-43.296 -9.504,43.296 h -16.512 l 15.84,-61.632 h 20.448 z m 37.91993,-13.344 h -11.52 l -7.584,-25.632 v 38.976 h -14.976 v -61.632 h 18.336 l 9.984,32.928 9.984,-32.928 h 18.336 v 61.632 h -14.88 v -39.168 z m 56.064,-20.928 v -13.248 q 0,-1.056 -0.576,-1.536 -0.576,-0.576 -1.824,-0.576 h -17.856 v -12 h 22.944 q 7.68,0 10.848,3.264 3.264,3.264 3.264,8.64 v 17.664 q 0,5.376 -3.264,8.64 -3.168,3.264 -10.848,3.264 h -22.944 v -12 h 17.856 q 1.248,0 1.824,-0.48 0.576,-0.576 0.576,-1.632 z m -25.824,-27.36 h 16.8 v 61.632 h -16.8 z m 79.10398,25.248 v 12 h -17.28 v -12 z m -30.72,-25.248 h 16.512 v 61.632 h -16.512 z m 28.608,0 h 16.512 v 61.632 h -16.512 z m 24.19192,0 h 16.8 v 61.632 h -16.8 z"
         id="text1"
         transform="skewX(-14.161208)"
         aria-label="AMPHI" />
      <path
         style="font-weight:bold;font-size:96px;line-height:0.7;font-family:Teko;-inkscape-font-specification:'Teko Bold';baseline-shift:baseline;fill:#f9f9f9;stroke:#ffffff;stroke-width:0"
         d="m 608.36929,195.71273 v 35.328 q 0,1.056 0.576,1.632 0.576,0.48 1.824,0.48 h 2.496 v 11.04 h -7.584 q -7.68,0 -10.944,-3.264 -3.168,-3.264 -3.168,-8.64 v -37.824 q 0,-5.376 3.168,-8.64 3.264,-3.264 10.944,-3.264 h 7.584 v 11.04 h -2.496 q -1.248,0 -1.824,0.576 -0.576,0.48 -0.576,1.536 z m 8.16,9.888 v -9.888 q 0,-1.056 -0.576,-1.536 -0.576,-0.576 -1.824,-0.576 h -2.496 v -11.04 h 7.584 q 7.68,0 10.848,3.264 3.264,3.264 3.264,8.64 v 11.136 z m 0,25.44 v -9.504 h 16.8 v 10.752 q 0,5.376 -3.264,8.64 -3.168,3.264 -10.848,3.264 h -7.584 v -11.04 h 2.496 q 1.248,0 1.824,-0.48 0.576,-0.576 0.576,-1.632 z m 48.38408,-22.752 v -11.616 q 0,-1.056 -0.576,-1.536 -0.576,-0.576 -1.824,-0.576 h -3.168 v -12 h 8.256 q 7.68,0 10.848,3.264 3.264,3.264 3.264,8.64 v 13.824 z m 0,21.792 v -23.04 h 16.8 v 25.248 q 0,5.376 -3.264,8.64 -3.168,3.264 -10.848,3.264 h -8.256 v -12 h 3.168 q 1.248,0 1.824,-0.48 0.576,-0.576 0.576,-1.632 z m -8.832,-33.408 v 11.616 h -16.8 v -13.824 q 0,-5.376 3.168,-8.64 3.264,-3.264 10.944,-3.264 h 8.256 v 12 h -3.168 q -1.248,0 -1.824,0.576 -0.576,0.48 -0.576,1.536 z m 0,10.368 v 23.04 q 0,1.056 0.576,1.632 0.576,0.48 1.824,0.48 h 3.168 v 12 h -8.256 q -7.68,0 -10.944,-3.264 -3.168,-3.264 -3.168,-8.64 v -25.248 z m 67.10407,23.808 h -11.52 l -7.584,-25.632 v 38.976 h -14.976 v -61.632 h 18.336 l 9.984,32.928 9.984,-32.928 h 18.336 v 61.632 h -14.88 v -39.168 z m 56.06401,-20.928 v -13.248 q 0,-1.056 -0.576,-1.536 -0.576,-0.576 -1.824,-0.576 h -17.856 v -12 h 22.944 q 7.68,0 10.848,3.264 3.264,3.264 3.264,8.64 v 17.664 q 0,5.376 -3.264,8.64 -3.168,3.264 -10.848,3.264 h -22.944 v -12 h 17.856 q 1.248,0 1.824,-0.48 0.576,-0.576 0.576,-1.632 z m -25.824,-27.36 h 16.8 v 61.632 h -16.8 z m 73.72797,25.728 v -11.616 q 0,-1.056 -0.576,-1.536 -0.576,-0.576 -1.824,-0.576 h -3.168 v -12 h 8.256 q 7.68,0 10.848,3.264 3.264,3.264 3.264,8.64 v 13.824 z m 0,21.792 v -23.04 h 16.8 v 25.248 q 0,5.376 -3.264,8.64 -3.168,3.264 -10.848,3.264 h -8.256 v -12 h 3.168 q 1.248,0 1.824,-0.48 0.576,-0.576 0.576,-1.632 z m -8.832,-33.408 v 11.616 h -16.8 v -13.824 q 0,-5.376 3.168,-8.64 3.264,-3.264 10.944,-3.264 h 8.256 v 12 h -3.168 q -1.248,0 -1.824,0.576 -0.576,0.48 -0.576,1.536 z m 0,10.368 v 23.04 q 0,1.056 0.576,1.632 0.576,0.48 1.824,0.48 h 3.168 v 12 h -8.256 q -7.68,0 -10.944,-3.264 -3.168,-3.264 -3.168,-8.64 v -25.248 z m 61.15207,-24.48 h 15.36 v 61.632 h -14.4 l -13.728,-32.352 v 32.352 h -15.36 v -61.632 h 14.4 l 13.728,32.928 z m 23.04009,0 h 16.8 v 61.632 h -16.8 z m 34.176,24.576 v 12 h -26.976 v -12 z m 2.784,-24.576 v 12 h -31.008 v -12 z m 0.864,49.632 v 12 h -31.872 v -12 z m 33.40795,-49.632 h 15.36 v 61.632 h -14.4 l -13.728,-32.352 v 32.352 h -15.36 v -61.632 h 14.4 l 13.728,32.928 z m 31.48807,5.76 h 16.8 v 55.872 h -16.8 z m 28.704,-5.76 v 12 h -40.51198 v -12 z m 4.3199,0 h 16.8 v 61.632 h -16.8 z m 34.176,24.576 v 12 h -26.976 v -12 z m 2.784,-24.576 v 12 h -31.008 v -12 z m 0.864,49.632 v 12 h -31.872 v -12 z m 28.896,-2.112 v -8.736 q 0,-1.056 -0.576,-1.536 -0.576,-0.576 -1.824,-0.576 h -9.216 q -7.488,0 -10.272,-3.36 -2.688,-3.36 -2.688,-8.736 v -12.672 q 0,-5.376 3.168,-8.64 3.168,-3.264 10.848,-3.264 h 13.152 q 7.68,0 10.848,3.264 3.168,3.264 3.168,8.64 v 7.392 h -16.8 v -5.184 q 0,-1.056 -0.576,-1.536 -0.576,-0.576 -1.824,-0.576 h -2.784 q -1.248,0 -1.824,0.576 -0.576,0.48 -0.576,1.536 v 9.12 q 0,1.056 0.576,1.632 0.576,0.48 1.824,0.48 h 9.024 q 7.488,0 10.272,3.168 2.88,3.168 2.88,8.544 v 12.672 q 0,5.376 -3.168,8.64 -3.168,3.264 -10.848,3.264 h -13.056 q -7.68,0 -10.944,-3.264 -3.168,-3.264 -3.168,-8.64 v -7.392 h 16.8 v 5.184 q 0,1.056 0.576,1.632 0.576,0.48 1.824,0.48 h 2.784 q 1.248,0 1.824,-0.48 0.576,-0.576 0.576,-1.632 z"
         id="text1-9"
         transform="skewX(-14.161208)"
         aria-label="COMPONENTES" />
    </g>
  </g>
</svg>
