<?xml version="1.0" encoding="UTF-8" standalone="no"?>
<svg
   width="120"
   height="38.950779"
   viewBox="0 0 120 38.950779"
   fill="none"
   version="1.1"
   id="svg20"
   sodipodi:docname="MSI_logo.svg"
   inkscape:version="1.4.2 (f4327f4, 2025-05-13)"
   xmlns:inkscape="http://www.inkscape.org/namespaces/inkscape"
   xmlns:sodipodi="http://sodipodi.sourceforge.net/DTD/sodipodi-0.dtd"
   xmlns="http://www.w3.org/2000/svg"
   xmlns:svg="http://www.w3.org/2000/svg">
  <defs
     id="defs20" />
  <sodipodi:namedview
     id="namedview20"
     pagecolor="#505050"
     bordercolor="#eeeeee"
     borderopacity="1"
     inkscape:showpageshadow="0"
     inkscape:pageopacity="0"
     inkscape:pagecheckerboard="0"
     inkscape:deskcolor="#505050"
     inkscape:zoom="13.45"
     inkscape:cx="60.037175"
     inkscape:cy="18.996283"
     inkscape:window-width="1920"
     inkscape:window-height="1009"
     inkscape:window-x="-8"
     inkscape:window-y="-8"
     inkscape:window-maximized="1"
     inkscape:current-layer="svg20" />
  <path
     d="m 24.2168,25.942878 c -0.1174,0.026 -0.2594,0.1887 -0.2447,0.3535 0.0211,0.2205 0.2965,0.3236 0.5408,0.3092 0.3323,-0.0187 0.6894,-0.1787 0.837,-0.3383 -0.4594,0.1153 -0.7835,-0.3977 -1.1331,-0.3244 z"
     fill="#ffffff"
     id="path1" />
  <path
     d="m 21.1032,29.798178 c -0.1535,-0.1958 -0.5179,-0.1433 -0.5638,0.1034 -0.0464,0.2533 0.1747,0.5121 0.3286,0.6713 0.185,0.1911 0.3667,0.3597 0.5987,0.418 0.0144,-0.0024 0.0195,0.0184 0.0244,0 -0.1044,-0.1211 -0.1999,-0.3096 -0.2469,-0.5571 -0.0452,-0.2415 -0.0333,-0.5007 -0.141,-0.6356 z"
     fill="#ffffff"
     id="path2" />
  <path
     d="m 16.8195,30.823078 c -0.3611,0.322 -0.4864,0.9665 -0.3929,1.6673 0.088,-0.3486 0.2729,-0.5223 0.5234,-0.738 0.1532,-0.1336 0.3936,-0.307 0.4392,-0.4888 0.0773,-0.303 -0.2418,-0.5951 -0.5697,-0.4405 z"
     fill="#ffffff"
     id="path3" />
  <path
     d="m 13.762,30.160178 c -0.368,0.3326 -0.5888,1.0233 -0.5509,1.6829 0.093,-0.3767 0.3784,-0.5236 0.7093,-0.7367 0.1861,-0.1197 0.5688,-0.3036 0.6352,-0.4921 0.0671,-0.1864 -0.0207,-0.4417 -0.1348,-0.5373 -0.2096,-0.1754 -0.5303,-0.0334 -0.6588,0.0832 z"
     fill="#ffffff"
     id="path4" />
  <path
     d="m 11.7842,28.266778 c -0.5565,0.2773 -0.9965,0.876 -1.0571,1.6106 0.1386,-0.326 0.4926,-0.4615 0.8574,-0.6138 0.2148,-0.0913 0.6014,-0.1923 0.6695,-0.3719 0.0567,-0.1479 0.0521,-0.3802 -0.0231,-0.4866 -0.0799,-0.1108 -0.3328,-0.195 -0.4467,-0.1383 z"
     fill="#ffffff"
     id="path5" />
  <path
     d="m 10.1463,25.143078 c -0.67263,0.3561 -1.06439,1.0515 -1.15161,1.9466 0.1305,-0.3552 0.50088,-0.5385 0.89264,-0.7189 0.25507,-0.1153 0.70007,-0.2294 0.77557,-0.4624 0.0579,-0.1803 0.0444,-0.4728 -0.0463,-0.5902 -0.0983,-0.1282 -0.2657,-0.1706 -0.4703,-0.1751 z"
     fill="#ffffff"
     id="path6" />
  <path
     d="m 112.504,29.389878 5.66,-15.6078 c 0,0 -4.231,0 -8.461,0.8488 l -5.351,14.7594 h 8.152 z m -0.966,-19.8234003 -1.087,2.9971003 c 4.257,-0.8488 8.462,-0.8488 8.462,-0.8488 L 120,8.7171777 c 0,0 -4.231,0 -8.462,0.8493 z M 82.0263,25.685678 c 2.5449,0.4646 5.169,0.7066 7.848,0.7066 h 8e-4 c 2.7496,0 4.7466,-0.6127 4.9617,-2.4805 0.1053,-0.8884 -0.7349,-1.5282 -2.274,-2.3772 -1.7615,-0.9714 -3.2412,-1.4571 -4.7713,-2.4805 -1.5308,-1.0242 -2.1903,-2.6352 -1.6736,-4.3414 0.6017,-1.9941 2.0006,-3.1487 4.1346,-4.2385 2.5007,-1.2766003 4.4819,-1.7567003 9.3052,-1.7567003 3.0373,0 6.0083,0.2934 8.8823,0.8492 l -1.035,2.8535003 c -2.546,-0.4639 -5.168,-0.7053 -7.8473,-0.7053 -2.7511,0 -4.7487,0.6134 -4.9642,2.4798 -0.1032,0.8906 0.7357,1.5321 2.2764,2.3788 1.7601,0.9706 3.2411,1.4557 4.7711,2.4799 1.533,1.0234 2.191,2.6344 1.675,4.3424 -0.603,1.9904 -2.004,3.1465 -4.1359,4.237 -2.501,1.2771 -4.4824,1.7564 -9.305,1.7564 h -8e-4 c -3.0363,0 -6.0075,-0.2936 -8.8814,-0.8504 z m -12.2895,3.7042 4.7216,-13.0233 c 1.5753,-4.3421 -4.2033,-2.7554 -5.4946,-1.7569 -1.014,0.7826 -2.8616,2.5685 -3.5426,4.4422 l -3.7477,10.338 h -8e-4 -8.1514 l 4.7213,-13.0233 c 1.5735,-4.3421 -4.203,-2.7554 -5.4953,-1.7569 -1.0143,0.7826 -2.864,2.5685 -3.5438,4.4445 l -3.7462,10.3357 H 37.3031 L 44.7992,8.7171777 c 2.5958,0 4.0006,0.5975 5.1806,1.7583003 0.4301,0.4237 0.6996,0.9736 0.8468,1.559 1.5295,-0.9248 2.8812,-1.6175 3.7911,-1.9727 1.6955,-0.6644003 3.8011,-1.3454003 6.3982,-1.3442003 2.5949,0 4.0004,0.5975 5.1789,1.7582003 0.4327,0.4238 0.7025,0.9737 0.8494,1.5591 1.5285,-0.9248 2.8817,-1.6175 3.7916,-1.9727 1.6937,-0.6644003 3.8008,-1.3454003 6.3967,-1.3442003 2.5962,0 4.0009,0.5975 5.1796,1.7582003 1.1782,1.1557 1.1517,3.2702 0.7245,4.4424 l -5.2469,14.4721 h -8.1529 z"
     fill="#231f20"
     id="path7" />
  <path
     d="m 28.1691,25.457678 c -0.9129,2.0943 -2.8795,5.9879 -5.8191,8.596 -1.6709,1.5793 -3.7462,2.9013 -6.0209,3.8402 -0.0426,0.016 -0.0862,0.0252 -0.1305,0.0252 -0.0453,0 -0.0908,-0.0088 -0.1336,-0.0268 -2.3003,-0.9747 -4.2138,-2.1929 -6.0215,-3.8319 -2.29339,-2.0803 -4.36274,-5.1373 -5.82777,-8.6084 -2.17215,-5.1493 -3.237426,-11.1209 -3.26216,-18.0028003 -0.00116,-0.1111 0.05578,-0.2153 0.15034,-0.2757 4.43037,-2.8837 10.41809,-5.392 15.00609,-6.23729999 0.0413,-0.0076 0.0834,-0.0076 0.1253,0 1.925,0.35879999 3.9674,0.95239999 6.2606,1.82239999 3.3179,1.2586 6.4648,2.8139 8.8275,4.3944 0.0923,0.0604 0.1478,0.1632 0.1478,0.2725 -0.0225,6.7638003 -1.1244,12.7570003 -3.3021,18.0322003 z"
     fill="#ec1c24"
     id="path8" />
  <path
     d="m 26.2735,22.618178 c -0.2111,0.138 -0.642,-0.0745 -0.8223,0.1094 -0.0981,0.702 0.759,0.1852 0.8485,-0.0781 -9e-4,-0.0189 -0.0031,-0.0382 -0.0262,-0.0313 z"
     fill="#ffffff"
     id="path9" />
  <path
     d="m 26.0567,20.063578 c -0.1024,0.1411 -0.3258,0.1573 -0.475,0.2525 -0.0322,0.5349 0.5526,-0.0253 0.475,-0.2525 z"
     fill="#ffffff"
     id="path10" />
  <path
     d="m 24.6095,24.868278 c 0.274,-0.397 0.3624,-1.0412 0.4591,-1.6443 0.0498,-0.3238 0.0919,-0.6166 0.1868,-0.8559 0.1032,-0.2573 0.2797,-0.4582 0.3406,-0.7197 0.0587,-0.2486 -0.0413,-0.4331 -0.1288,-0.6361 -0.2042,-0.4695 -0.4069,-0.93 -0.7872,-1.1693 -0.448,-0.2833 -1.1502,-0.2025 -1.7866,-0.1512 -0.2995,0.0242 -0.5998,0.054 -0.8914,0.0929 -0.3142,0.0415 -0.6308,0.075 -0.9288,0.069 -1.2754,-0.0216 -2.011,-0.6397 -2.1496,-1.7945 -0.0012,-0.0076 -0.0016,-0.0136 -0.0118,-0.012 -0.1779,1.1513 0.4722,1.8369 1.4103,2.0388 0.072,0.1592 0.2414,0.3008 0.1878,0.521 -0.0644,0.2625 -0.4957,0.2739 -0.7997,0.2306 -0.3276,-0.0438 -0.5741,-0.188 -0.7638,-0.3235 -0.4453,-0.3213 -0.7432,-0.7607 -0.9984,-1.1689 0.2168,0.6227 0.6249,1.1635 1.1165,1.5286 0.4953,0.3682 1.2249,0.669 2.0554,0.6138 0.5594,-0.0372 1.0693,-0.1637 1.5165,-0.3354 -0.6465,-0.004 -1.5082,0.0193 -1.6918,-0.4294 -0.0596,-0.1465 -0.0273,-0.3766 0.0709,-0.5094 0.5454,0.0661 1.0342,-0.051 1.4922,-0.0808 0.3818,-0.0246 0.8014,0.0378 1.1157,0.1396 0.3222,0.1038 0.5956,0.2808 0.7515,0.5092 0.3178,0.4666 0.3557,1.1515 0.2356,1.8172 -0.107,0.5985 -0.3272,1.1461 -0.5283,1.6449 -0.4304,1.0724 -1.291,2.7009 -1.9735,3.3013 -0.824,0.694 -1.8475,1.0952 -3.0434,1.4009 -0.4809,0.1225 -1.022,0.2207 -1.5394,0.2426 -1.2256,0.054 -2.2156,-0.1166 -2.8663,-0.6948 -0.2999,-0.2675 -0.5319,-0.6393 -0.7045,-1.0647 -0.3935,-0.9713 -0.5526,-2.1713 -0.4228,-3.5439 -0.0406,-0.0103 -0.0722,0.0373 -0.0934,0.0579 -0.0383,0.0326 -0.0697,0.0723 -0.1067,0.1046 -0.4325,0.3825 -1.3361,0.9443 -2.1379,0.5675 -0.1472,-0.0683 -0.2853,-0.1814 -0.3644,-0.3365 -0.2208,-0.4245 0.1105,-0.7884 0.3644,-0.9843 0.1909,-0.1477 0.4451,-0.3327 0.7638,-0.2546 0.1872,0.0459 0.4821,0.2878 0.4817,0.4859 -4e-4,0.1131 -0.257,0.3264 -0.4582,0.3248 -0.2045,-0.0027 -0.339,-0.1644 -0.4348,-0.2672 -0.0232,-0.0242 -0.0589,-0.098 -0.1059,-0.0693 -0.2164,0.9743 1.1516,0.9367 1.6208,0.4737 0.4053,-0.399 0.5588,-1.2374 0.1886,-1.7711 -0.2168,-0.3109 -0.6274,-0.425 -1.0814,-0.3589 -0.4074,0.0598 -0.9468,0.1705 -1.1976,0.3644 -0.3537,0.2722 -0.4015,0.8437 -0.5405,1.2919 -0.1317,0.4242 -0.3078,0.8193 -0.52914,1.1345 -0.02731,0.0396 -0.08,0.073 -0.07059,0.1274 0.54193,0.035 1.00333,0.1756 1.16403,0.5676 0.0612,0.1541 0.0791,0.3912 0.046,0.5447 -0.0762,0.3546 -0.278,0.6453 -0.1168,1.0652 0.2629,0.6926 1.2689,0.8263 1.5851,1.4588 0.1301,0.2603 0.1032,0.6254 0.2705,0.8806 0.2073,0.3151 0.6948,0.2766 1.1517,0.3585 0.254,0.0458 0.5092,0.1043 0.7045,0.2198 0.3724,0.2216 0.3846,0.7351 0.8346,0.8925 0.2725,0.0937 0.4999,-0.04 0.7288,-0.1042 0.1739,-0.0496 0.3596,-0.0774 0.5282,-0.106 0.3898,-0.0613 0.6771,0.0279 1.0454,0.1403 0.3685,0.1114 0.7398,0.1173 1.0461,0 0.2988,-0.1143 0.5148,-0.319 0.7517,-0.5091 0.4706,-0.377 0.9372,-0.7359 1.5742,-0.937 0.6429,-0.2048 1.41,-0.3064 1.7631,-0.7539 0.185,-0.2345 0.2685,-0.589 0.3516,-0.9726 0.1613,-0.7375 0.4007,-1.4035 0.7407,-1.9224 0.1721,-0.2646 0.432,-0.4729 0.609,-0.7301 z"
     fill="#ffffff"
     id="path11" />
  <path
     d="m 21.7834,18.910578 c 0.4181,0.033 0.9861,0.1613 1.1397,0.4054 -0.1014,-0.3323 -0.7324,-2.1753 -3.6774,-2.049 0.5885,0.1761 1.2584,0.3775 1.7632,0.6946 0.1556,0.0981 0.3788,0.2403 0.3524,0.4744 -0.0296,0.2579 -0.5186,0.5079 -0.8699,0.5327 -0.3806,0.0269 -0.6694,-0.1508 -0.8926,-0.2664 0.3735,0.4761 0.9854,0.8331 1.8566,0.7412 -0.0215,-0.1077 -0.1716,-0.2369 -0.1067,-0.4054 0.0437,-0.1119 0.2327,-0.1438 0.4347,-0.1275 z"
     fill="#ffffff"
     id="path12" />
  <path
     d="m 17.4534,23.733578 c 0.1997,0.0215 0.3959,0.1324 0.5529,0.1853 0.0142,-0.0574 -0.0553,-0.0828 -0.0943,-0.1157 -0.4464,-0.382 -1.485,-0.2269 -1.7151,0.2423 0.0406,0.0808 0.1818,0.0898 0.2001,0.186 0.0196,0.11 -0.1351,0.2627 -0.2115,0.3475 -0.2081,0.2248 -0.4051,0.3531 -0.6342,0.5091 -0.1159,0.077 -0.2157,0.2102 -0.3528,0.1966 0.0687,-0.2749 0.2159,-0.3842 0.3409,-0.6253 0.0813,-0.1593 0.2897,-0.5789 0.1758,-0.7534 -0.0707,-0.1064 -0.4149,-0.0494 -0.4702,-0.1733 -0.0449,-0.1006 0.0385,-0.2298 0.0929,-0.2901 0.1638,-0.1748 0.4999,-0.274 0.7995,-0.3365 -0.4551,8e-4 -1.2845,0.1504 -1.4797,0.5338 -0.1305,0.255 -0.0148,0.6153 0.27,0.648 0.1094,0.3543 -0.1758,0.7944 -0.3879,0.9608 -0.0471,0.0383 -0.1149,0.0849 -0.1762,0.0923 -0.354,0.0487 -0.255,-0.362 -0.3401,-0.6126 -0.0322,-0.0939 -0.0926,-0.1662 -0.1417,-0.2328 -0.0999,0.9072 0.0979,1.8064 0.3059,2.5245 -0.0234,-0.2534 0.0216,-0.5028 0.1763,-0.5788 0.361,-0.1759 0.8465,0.0929 1.2685,0.1149 0.4393,0.0253 0.6931,-0.2466 0.9991,-0.254 0.1583,-0.0034 0.2752,0.1056 0.4229,0.07 0.0969,-0.0244 0.1826,-0.2071 0.2697,-0.3237 0.0872,-0.1166 0.1958,-0.2382 0.3059,-0.3016 0.421,-0.2412 0.853,0.091 1.1282,0.2437 -0.2435,-0.4539 -1.0657,-0.8037 -1.6919,-0.498 -0.1279,0.0618 -0.2369,0.2249 -0.3879,0.3128 -0.2399,0.1375 -0.5592,0.0991 -0.8691,0.08 -0.1063,-0.0063 -0.2227,0.0253 -0.3056,-0.0459 0.0791,-0.3969 0.4591,-0.4098 0.7387,-0.5792 0.4051,-0.2435 0.7927,-0.6122 0.8351,-1.1925 0.0058,-0.0759 -0.0268,-0.1872 0.0357,-0.2661 0.058,-0.0722 0.2031,-0.0836 0.3401,-0.0681 z"
     fill="#ffffff"
     id="path13" />
  <path
     d="m 6.5984,13.424078 c 0.08721,0.1822 -0.00271,0.4274 0.01211,0.6025 0.27479,-0.7374 0.79989,-1.3214 1.30386,-1.8295 0.02782,-0.0287 0.10113,-0.0966 0.05823,-0.0815 -0.265,0.1253 -0.41573,0.3625 -0.77554,0.3944 -0.2051,-0.2297 -0.20316,-0.9287 0.0706,-1.0774 0.3352,0.1061 0.5564,-0.1888 0.51698,-0.4972 -0.06351,-0.4925 -0.67222,-0.8208 -0.95152,-1.0197003 0.14789,0.1847003 0.4308,0.3552003 0.49341,0.6247003 0.02267,0.0979 0.017,0.2851 -0.08155,0.313 -0.15665,0.0446 -0.24786,-0.1278 -0.40052,-0.1043 -0.13373,0.0214 -0.19543,0.2548 -0.22274,0.4165 -0.0277,0.1599 -0.04406,0.4272 -0.03543,0.6146 0.00399,0.1008 0.04109,0.2569 -0.03504,0.335 -0.09121,-0.0447 -0.11208,-0.1644 -0.15305,-0.2542 -0.1457,-0.3216 -0.39898,-0.7531 -0.29411,-1.182 0.06493,-0.0249 0.1886,0.0085 0.23524,-0.0345 0.02138,-0.2664 -0.16825,-0.5137 -0.34062,-0.6833003 -0.23782,-0.2349 -0.70559,-0.3957 -1.08087,-0.2658 0.24594,0.0417 0.7941,0.0852 0.79886,0.3580003 0.00194,0.1014 -0.11981,0.2417 -0.1524,0.324 -0.19131,0.4751 0.02757,1.0838 0.25766,1.3898 0.13423,0.1775 0.32438,0.3431 0.2114,0.6718 -0.14725,-0.0079 -0.28471,-0.1099 -0.42242,-0.185 -0.19621,-0.108 -0.40156,-0.2114 -0.49419,-0.3828 -0.09984,-0.1857 -0.10705,-0.3769 -0.23472,-0.5209 -0.32902,-0.3705 -1.04273,-0.6306 -1.56306,-0.3138 0.43956,-0.0165 0.84859,0.0151 1.0225,0.3017 0.07601,0.1261 0.12535,0.3397 0.14094,0.533 0.00605,0.0755 -0.01559,0.1794 0.02357,0.2428 0.06828,0.1129 0.2784,0.0928 0.40001,0.1622 0.16439,0.0953 0.26165,0.3507 0.446,0.51 0.04406,0.0387 0.10203,0.0848 0.15215,0.1155 0.28187,0.1705 0.95422,0.2318 1.09426,0.5224 z"
     fill="#ffffff"
     id="path14" />
  <path
     d="m 15.9742,7.4174777 c 0.1361,0.1153 0.3912,0.3115 0.5439,0.3079 0.2426,-0.0054 0.3648,-0.2225 0.5344,-0.3219 -0.8427,-0.3743 -1.6155,-0.9137 -2.3711,-1.3589 0.1119,0.1751 0.2667,0.3269 0.4179,0.503 0.2739,0.3202 0.5504,0.5921 0.8749,0.8699 z"
     fill="#ffffff"
     id="path15" />
  <path
     d="m 9.35822,23.834778 c -0.46056,-0.7107 -2.78305,-3.7141 -0.96788,-8.1374 2.47786,-6.0380003 9.17866,-4.3947 9.80996,-4.1485 0.0735,-0.5048 0.2995,-1.0277 0.8863,-1.1569 0.2454,-0.0537 0.4889,-0.0319 0.7137,0.003 -0.6047,0.2236 -1.2531,0.4973 -1.2224,1.1353 0.0263,0.5669 0.6093,0.9718 1.0936,1.0603 h -0.0022 c 0,0 0.3844,0.0827 0.6635,-0.0912 0.006,-0.0032 0.0091,-0.0065 0.0139,-0.0087 0.076,-0.0449 0.1444,-0.0943 0.2408,-0.1238 0.2008,-0.0626 0.4049,-0.0783 0.6129,-0.0288 0.06,0.0134 0.1683,0.1077 0.2646,0.1024 0.064,-0.0033 0.1587,-0.0894 0.246,-0.1063 0.2369,-0.0417 0.4645,0.0857 0.6776,0.1734 0.1505,0.0613 0.5451,0.1183 0.5685,0.3167 0.0175,0.1419 -0.2068,0.3101 -0.321,0.3962 -0.1576,0.1193 -0.3011,0.1905 -0.4951,0.2698 0.6548,-0.0553 1.9615,-0.5561 1.7636,0.2867 -0.021,0.0912 -0.069,0.1651 -0.0524,0.2071 0.6752,-0.2281 0.8879,-0.7987 0.7869,-1.599 -0.0915,0.028 -0.1624,0.1989 -0.2368,0.2516 0,-0.0013 0,-0.0037 -0.0012,-0.0072 -0.0011,-0.2293 0.0164,-0.571 -0.1408,-0.7164 0.0751,0.4196 -0.1436,0.6218 -0.4455,0.7652 -0.2407,-0.4165 -0.5123,-0.7938 -0.8084,-1.1365 -0.0314,0.132 -0.0143,0.3013 -0.0554,0.429 -0.0865,-0.2379 -0.2744,-0.375 -0.5101,-0.4065 -0.1522,-0.0213 -0.318,0.0293 -0.4984,6e-4 -0.2319,-0.0359 -0.5022,-0.2029 -0.519,-0.3824 -0.0298,-0.2893 0.4938,-0.4249 0.757,-0.4941 0.0562,0.1857 0.135,0.3422 0.1961,0.5224 0.2448,-0.1898 0.6325,-0.4858 1.1254,-0.5015 0.1174,-0.0029 0.3819,0.0447 0.4221,0.1276 0.0945,0.194 -0.1483,0.4203 -0.2232,0.4999 -0.0413,0.0418 -0.1106,0.0938 -0.0895,0.1182 0.4544,-0.1155 0.6632,-0.4109 0.9755,-0.6309 0.1667,0.2175 0.2302,0.687 0.2061,1.0018 0.3592,-0.3535 0.3678,-0.9631 0.3345,-1.605 0.373,0.1229 0.6241,0.4065 0.8731,0.6938 -0.202,-0.3788 -0.4697,-0.6787 -0.7935,-0.881 -0.1143,-0.0717 -0.2626,-0.1098003 -0.3503,-0.1951003 -0.0782,-0.0774 -0.1763,-0.3519 -0.2792,-0.37 -0.1345,-0.0245 -0.3066,0.1251 -0.4671,0.1373 -0.2761,0.0196 -0.4271,-0.1726 -0.4813,-0.4464 -0.6758,0.1913 -0.9374,-0.227 -1.0928,-0.7338 -0.0267,-0.0899 -0.0267,-0.2084 -0.0681,-0.3067 -0.0516,-0.1183 -0.3189,-0.2427 -0.459,-0.2967 -0.1909,-0.0741 -0.4216,-0.1068 -0.6403,-0.0721 -0.1953,0.0314 -0.3428,0.1271 -0.5723,0.14 -0.5536,0.0316 -1.1328,-0.2124 -1.5825,-0.4293 -1.3429,-0.6492 -2.4474,-1.6292 -3.3671,-2.7958 -0.0366,-0.0466 -0.0623,-0.115 -0.1261,-0.1343 0.1408,0.4494 0.4027,0.8223 0.6461,1.1718 0.7418,1.0618 1.7116,1.8418 2.6588,2.581 -0.3846,0.0393 -0.6782,-0.0979 -0.9372,-0.2404 -0.2618,-0.1439 -0.5287,-0.2995 -0.7594,-0.4886 -0.9893,0.8465 -2.9642,0.9452 -4.559,1.3218 0.6644,-0.0191 1.6516,0.1909 2.2302,0.2861 -0.006,8e-4 -0.0111,0.0021 -0.0168,0.0031 v -8e-4 c -2.7802,0.11 -5.18167,0.9264003 -6.84612,2.5030003 0.43235,-0.1604 0.82411,-0.3601 1.30386,-0.4742 -0.6878,0.628 -1.36879,1.2798 -1.91463,2.0374 -0.54532,0.7575 -1.1293,1.5517 -1.15197,2.8031 0.33779,-0.3232 0.67673,-0.7465 1.13974,-0.9842 -0.3879,0.7853 -0.72118,1.6894 -0.98618,2.6402 -0.23382,0.8353 -0.57457,2.2313 -0.0246,3.0099 0.03658,-0.2802 0.03658,-0.5967 0.2239,-0.7292 0.32529,0.7695 0.88259,2.3261 2.63052,3.864 z M 21.7107,8.6149777 c 0.1579,0.0358 0.3451,0.0313 0.428,0.0779 0.1582,0.0932 0.1591,0.3195 0.2625,0.5015 -0.6285,0.1044 -0.8339,-0.35 -1.1329,-0.6809 0.105,0.0076 0.2672,0.0617 0.4424,0.1015 z"
     fill="#ffffff"
     id="path16" />
  <path
     d="m 14.048,16.438578 c -0.2061,0 -0.8966,-0.1127 -0.9166,0.1161 -0.0117,0.1396 0.2858,0.2473 0.4468,0.2891 0.6146,0.159 1.4595,0.1016 2.0794,0.0466 0.8745,-0.0793 1.7469,-0.288 2.4437,-0.5447 1.1548,-0.4237 2.0934,-1.0237 2.8579,-1.8011 0.2116,-0.2154 0.1906,-0.275 -0.0345,-0.083 -0.5829,0.4981 -1.2849,0.8877 -2.0603,1.2019 -1.3674,0.5523 -2.9362,0.7751 -4.8164,0.7751 z"
     fill="#ffffff"
     id="path17" />
  <path
     d="m 17.1607,19.322478 c -1.0412,0.0816 -1.9788,-0.0344 -2.7952,-0.2209 -0.8055,-0.1834 -1.5378,-0.5457 -2.045,-1.0062 -0.2113,-0.193 -0.3423,-0.5464 -0.6938,-0.4642 -0.0322,0.2561 0.1734,0.4439 0.3182,0.6019 0.454,0.4976 1.1269,0.826 1.8319,1.0423 0.9735,0.2998 2.3328,0.3275 3.3839,0.0471 z"
     fill="#ffffff"
     id="path18" />
  <path
     d="m 19.8862,16.229778 c -1.2117,0.6513 -2.5557,1.2267 -4.3114,1.3318 -0.7148,0.043 -1.4197,-0.1121 -1.9382,-0.3005 -0.2472,-0.0909 -0.5273,-0.2118 -0.7633,-0.3476 -0.1831,-0.1051 -0.5984,-0.3048 -0.5885,-0.5334 0.0129,-0.284 0.678,-0.3487 0.9524,-0.3576 6.1295,-0.2038 7.3276,-2.8766 7.3228,-2.9858 -0.0039,-0.0951 -0.1049,0.0158 -0.1049,0.0158 -1.6081,2.0703 -5.7496,2.2974 -5.7496,2.2974 -1.0253,0.1438 -2.0562,-0.0898 -2.5845,-0.6133 -0.115,-0.1142 -0.2093,-0.2739 -0.2473,-0.4518 -0.119,0.1391 -0.1993,0.2889 -0.3397,0.4391 -0.1361,0.1459 -0.5355,0.579 -0.5636,0.0699 -0.0224,-0.3782 0.0877,-0.4562 0.2346,-0.6828 0.0767,-0.1183 0.1576,-0.2372 0.2231,-0.3239 0.4365,-0.5735 0.7988,-1.1625 1.3084,-1.6333 0.0433,-0.0411 0.1269,-0.089 0.1055,-0.1271 -2.97577,1.3013 -3.89109,3.665 -4.22128,4.8515 -0.1694,0.6069 -0.27105,1.3014 -0.27105,2.0038 0,0.7245 0.09752,1.4105 0.24683,2.038 0.29837,1.2525 0.65213,2.1242 1.20145,3.1009 0.18332,-0.2456 0.25455,-0.5728 0.35925,-0.8742 0.1126,-0.3233 0.1926,-0.7475 0.3516,-1.0116 0.3735,-0.6212 2.4182,-0.4616 1.8593,-0.8899 -0.1613,-0.1249 -0.315,-0.271 -0.4582,-0.4177 -0.2825,-0.2895 -0.547,-0.6324 -0.7868,-0.9725 -0.4776,-0.6779 -0.8789,-1.4941 -0.9172,-2.559 0.5459,1.407 1.3714,2.5899 2.6914,3.2307 0.4388,0.2133 0.9503,0.4394 1.5391,0.4281 -1.559,-0.2968 -2.5143,-1.4999 -3.1608,-2.7679 -0.1014,-0.1975 -0.2461,-0.3854 -0.2935,-0.5551 -0.019,-0.0683 -0.0273,-0.1556 -0.0109,-0.2205 0.0926,-0.3897 0.5651,-0.198 0.8456,-0.0921 0.1719,0.066 0.3603,0.12 0.5167,0.1612 1.0972,0.2973 2.2974,0.4877 3.6777,0.3488 0.8211,-0.0838 1.5451,-0.2903 2.1842,-0.5559 0.6367,-0.2671 1.2109,-0.6041 1.6908,-1.0435 z"
     fill="#ffffff"
     id="path19" />
  <path
     d="m 32.1741,6.6198777 c -3.6384,-2.5041 -10.2873,-5.5848 -15.8033,-6.60119999 -0.1492,-0.0255 -0.2248,-0.0243 -0.3557,0 -5.3928,0.9806 -11.93375,4.01339999 -15.803077,6.60119999 -0.1146563,0.0711 -0.21179165326,0.2498 -0.21179165326,0.3887 C -0.0208963,14.945478 1.40728,21.208778 3.38156,25.876378 c 1.26431,3.0095 3.3325,6.4745 6.04947,8.9206 2.00967,1.8423 4.05217,3.087 6.58437,4.1235 0.1024,0.0411 0.2592,0.0397 0.3557,0 2.684,-1.0617 4.8985,-2.5291 6.585,-4.1235 2.7493,-2.441 4.8051,-6.068 6.0491,-8.9206 2.2237,-5.3886 3.4032,-11.7 3.3814,-18.8678003 0,-0.1461 -0.09,-0.3119 -0.2125,-0.3887 z m -4.005,18.8378003 c -0.9129,2.0943 -2.8796,5.9879 -5.8191,8.596 -1.6709,1.5793 -3.7462,2.9013 -6.0209,3.8402 -0.0427,0.016 -0.0862,0.0253 -0.1305,0.0253 -0.0454,0 -0.0908,-0.0089 -0.1336,-0.0268 -2.3003,-0.9747 -4.2138,-2.1929 -6.0215,-3.832 -2.29341,-2.0803 -4.36276,-5.1372 -5.82778,-8.6084 -2.17216,-5.1493 -3.237432,-11.1208 -3.262167,-18.0028003 -0.00116,-0.111 0.055787,-0.2153 0.150337,-0.2757 4.43037,-2.8837 10.41811,-5.3919 15.00611,-6.23729999 0.0413,-0.0076 0.0834,-0.0076 0.1253,0 1.9249,0.35879999 3.9674,0.95239999 6.2606,1.82239999 3.3178,1.2586 6.4648,2.814 8.8275,4.3944 0.0923,0.0604 0.1478,0.1632 0.1478,0.2725 -0.0226,6.7638003 -1.1244,12.7570003 -3.3021,18.0322003 z"
     fill="#a6a8ab"
     id="path20" />
</svg>
